<svg version="1.1" id="Layer_1" xmlns="http://www.w3.org/2000/svg" xmlns:xlink="http://www.w3.org/1999/xlink" x="0px" y="0px"
	 width="100%" viewBox="0 0 492 492" enable-background="new 0 0 492 492" xml:space="preserve">
<path fill="#B30101" opacity="1.000000" stroke="none" 
	d="
M278.000000,493.000000 
	C257.645782,493.000000 237.291550,493.000000 216.538513,492.584900 
	C212.199875,491.424408 208.254196,490.708588 204.321152,489.928955 
	C176.433624,484.400879 149.860168,475.426331 125.094925,461.127655 
	C100.996094,447.213715 79.762253,430.051941 61.449814,409.080261 
	C44.414104,389.570679 30.613811,368.113464 20.639572,344.232941 
	C11.306678,321.887909 5.292880,298.673401 2.919173,274.536285 
	C2.830700,273.636658 1.664148,272.843048 0.999997,272.000000 
	C1.000000,269.299988 1.000000,266.599976 1.404059,263.308655 
	C1.814560,259.830475 1.821001,256.943604 1.903591,253.593384 
	C1.931757,248.730347 1.883773,244.330643 1.876915,239.512192 
	C1.612028,237.062286 1.306016,235.031143 1.000001,233.000000 
	C1.000000,230.299988 1.000000,227.599976 1.422418,224.514160 
	C2.561523,220.186569 3.512237,216.270706 3.952006,212.298264 
	C5.402859,199.192688 8.398914,186.372910 12.386726,173.903305 
	C17.312389,158.501114 22.979650,143.241547 31.397364,129.330307 
	C38.990643,116.781525 46.179684,103.711853 55.602261,92.617462 
	C66.921394,79.290009 80.073235,67.432999 93.062180,55.633526 
	C106.657486,43.283211 122.639030,34.194706 139.048782,26.196354 
	C153.282440,19.258667 167.886047,12.832244 183.584076,9.750806 
	C196.361221,7.242721 209.229919,5.202829 222.038834,2.850828 
	C222.780838,2.714580 223.350266,1.638632 224.000000,1.000001 
	C225.714355,1.000000 227.428711,1.000000 229.657684,1.341606 
	C231.092148,1.758982 232.012009,1.834753 233.382538,1.995026 
	C236.866226,1.995989 239.899261,1.912451 243.388824,1.894088 
	C246.919662,1.915543 249.993958,1.871822 253.493011,1.871286 
	C256.278534,1.609647 258.639252,1.304824 261.000000,1.000001 
	C263.370575,1.000000 265.741119,1.000000 268.591492,1.372125 
	C270.929535,2.106743 272.783173,2.494905 274.646729,2.827544 
	C286.254608,4.899520 298.026794,6.308446 309.441833,9.152211 
	C336.938263,16.002251 362.480103,27.689621 385.861298,43.592289 
	C403.202087,55.386562 419.088287,69.003326 432.806274,85.123940 
	C444.486725,98.850159 454.984894,113.321747 463.514038,129.142654 
	C476.795471,153.778656 486.065155,179.834213 490.138763,207.643570 
	C490.558258,210.507309 492.021210,213.218185 493.000000,216.000000 
	C493.000000,236.354233 493.000000,256.708466 492.584900,277.461487 
	C491.127472,282.736938 489.939880,287.587646 489.066315,292.494324 
	C483.223358,325.313385 470.775787,355.470306 452.377625,383.180237 
	C440.183319,401.546326 425.870361,418.042664 409.130646,432.521454 
	C395.505676,444.306183 381.009857,454.737946 365.215881,463.299377 
	C340.475189,476.710541 314.296448,486.026978 286.347961,490.139404 
	C283.486969,490.560394 280.778992,492.021545 278.000000,493.000000 
M359.957642,388.163696 
	C359.957642,388.163696 359.877869,388.299591 359.819244,387.604889 
	C351.834564,379.758057 343.849915,371.911224 335.846497,363.383820 
	C315.643890,343.165466 295.454010,322.934357 275.229553,302.737946 
	C270.298950,297.814209 265.254761,293.004211 259.899323,287.542358 
	C253.929947,281.675201 247.960556,275.808014 241.587280,269.422150 
	C238.071838,265.944153 234.556396,262.466187 230.763367,258.379486 
	C224.785324,252.503204 218.807281,246.626923 212.454224,240.247925 
	C202.845215,230.554947 193.279129,220.818954 183.615906,211.180328 
	C172.538742,200.131332 161.375397,189.168747 149.890717,177.565033 
	C144.646851,172.400955 139.402985,167.236862 133.857056,161.452850 
	C121.293884,148.906494 108.730721,136.360123 95.937851,123.584366 
	C94.947235,124.740860 94.191414,125.566536 93.497696,126.441444 
	C78.487907,145.371490 67.348534,166.399002 60.201340,189.435257 
	C55.021118,206.131729 51.588165,223.203125 51.524067,241.560989 
	C51.697067,247.434784 51.870068,253.308578 51.966396,260.067139 
	C52.881489,282.078796 58.076645,303.138214 66.537842,323.381042 
	C75.723648,345.357452 88.206718,365.251862 105.408127,382.781891 
	C110.190712,387.255798 114.973289,391.729706 120.051514,396.806030 
	C131.882172,407.354309 145.029190,415.951324 159.169067,423.047150 
	C160.414703,423.672272 161.977905,423.664581 163.916153,424.349823 
	C173.650894,428.231049 183.385620,432.112244 193.815842,436.231598 
	C209.409531,441.297119 225.426804,443.702759 242.752380,444.018005 
	C248.576248,443.917969 254.400101,443.817963 261.053650,443.742767 
	C277.843140,442.505768 294.306458,439.645782 310.573151,433.664001 
	C310.856689,433.506714 311.004669,433.266052 311.021881,433.001129 
	C311.021881,433.001129 310.963043,433.007904 311.756470,433.178680 
	C321.540161,428.798462 331.323883,424.418213 341.838776,420.036346 
	C353.067322,415.012329 362.610535,407.500977 372.575531,399.880402 
	C368.410706,395.922028 364.700745,392.395966 360.750122,388.428833 
	C360.446594,388.305695 360.143036,388.182587 359.957642,388.163696 
M306.932281,60.576038 
	C306.639191,60.428242 306.346069,60.280445 305.318817,59.920147 
	C290.657715,55.116837 275.635406,52.375278 259.367126,51.796555 
	C253.494858,51.701614 247.622574,51.606674 240.918839,51.484444 
	C226.374130,53.696541 211.829407,55.908642 196.482498,58.107597 
	C186.703430,61.781574 176.924362,65.455551 166.402618,69.045479 
	C151.048416,75.960419 136.849777,84.704727 123.386894,95.898445 
	C129.108948,101.498238 134.538086,106.811378 140.267441,112.709358 
	C148.182556,120.524635 156.097672,128.339905 164.248459,136.768387 
	C165.736984,138.086914 167.298569,139.332275 168.703110,140.734894 
	C191.569031,163.569839 214.410156,186.429596 237.277588,209.263046 
	C238.681763,210.665131 240.258194,211.894730 242.058334,213.802490 
	C248.035477,219.678238 254.012604,225.553986 260.384552,231.893738 
	C263.450928,234.938156 266.517303,237.982574 269.837189,241.683899 
	C275.818146,247.532333 281.799133,253.380783 288.116241,259.802368 
	C308.592407,280.351624 329.064636,300.904846 349.566101,321.428802 
	C350.112091,321.975372 350.975647,322.204773 351.913422,323.193481 
	C357.143738,328.496368 362.374084,333.799286 367.968536,339.684113 
	C378.800293,350.341766 389.632050,360.999420 400.486084,371.679016 
	C412.256012,357.455139 421.625153,342.005280 428.689301,325.246887 
	C437.585236,304.143097 443.373779,282.245819 444.118866,258.301483 
	C444.097992,252.478333 444.077087,246.655197 444.204559,239.933823 
	C443.426086,207.826355 434.759735,177.856293 418.431152,150.355408 
	C411.780273,139.153900 403.140625,129.133209 395.093475,117.984703 
	C390.493561,113.390137 385.893646,108.795563 381.146851,103.619499 
	C368.008392,90.989807 353.404541,80.474281 336.192505,72.578773 
	C326.435547,68.724289 316.678589,64.869804 306.991364,61.005123 
	C306.991364,61.005123 306.995087,61.075466 306.932281,60.576038 
z"/>
<path fill="#000000" opacity="1.000000" stroke="none" 
	d="
M223.531342,1.000001 
	C223.350266,1.638632 222.780838,2.714580 222.038834,2.850828 
	C209.229919,5.202829 196.361221,7.242721 183.584076,9.750806 
	C167.886047,12.832244 153.282440,19.258667 139.048782,26.196354 
	C122.639030,34.194706 106.657486,43.283211 93.062180,55.633526 
	C80.073235,67.432999 66.921394,79.290009 55.602261,92.617462 
	C46.179684,103.711853 38.990643,116.781525 31.397364,129.330307 
	C22.979650,143.241547 17.312389,158.501114 12.386726,173.903305 
	C8.398914,186.372910 5.402859,199.192688 3.952006,212.298264 
	C3.512237,216.270706 2.561523,220.186569 1.422418,224.064178 
	C1.000000,149.739624 1.000000,75.479248 1.000000,1.000000 
	C75.020752,1.000000 149.041718,1.000000 223.531342,1.000001 
z"/>
<path fill="#000000" opacity="1.000000" stroke="none" 
	d="
M493.000000,215.531342 
	C492.021210,213.218185 490.558258,210.507309 490.138763,207.643570 
	C486.065155,179.834213 476.795471,153.778656 463.514038,129.142654 
	C454.984894,113.321747 444.486725,98.850159 432.806274,85.123940 
	C419.088287,69.003326 403.202087,55.386562 385.861298,43.592289 
	C362.480103,27.689621 336.938263,16.002251 309.441833,9.152211 
	C298.026794,6.308446 286.254608,4.899520 274.646729,2.827544 
	C272.783173,2.494905 270.929535,2.106743 269.035645,1.372125 
	C343.592194,1.000000 418.184418,1.000000 493.000000,1.000000 
	C493.000000,72.354073 493.000000,143.708374 493.000000,215.531342 
z"/>
<path fill="#000000" opacity="1.000000" stroke="none" 
	d="
M0.999997,272.468658 
	C1.664148,272.843048 2.830700,273.636658 2.919173,274.536285 
	C5.292880,298.673401 11.306678,321.887909 20.639572,344.232941 
	C30.613811,368.113464 44.414104,389.570679 61.449814,409.080261 
	C79.762253,430.051941 100.996094,447.213715 125.094925,461.127655 
	C149.860168,475.426331 176.433624,484.400879 204.321152,489.928955 
	C208.254196,490.708588 212.199875,491.424408 216.069855,492.584900 
	C144.405304,493.000000 72.810593,493.000000 1.000000,493.000000 
	C1.000000,419.645905 1.000000,346.291626 0.999997,272.468658 
z"/>
<path fill="#000000" opacity="1.000000" stroke="none" 
	d="
M278.468658,493.000000 
	C280.778992,492.021545 283.486969,490.560394 286.347961,490.139404 
	C314.296448,486.026978 340.475189,476.710541 365.215881,463.299377 
	C381.009857,454.737946 395.505676,444.306183 409.130646,432.521454 
	C425.870361,418.042664 440.183319,401.546326 452.377625,383.180237 
	C470.775787,355.470306 483.223358,325.313385 489.066315,292.494324 
	C489.939880,287.587646 491.127472,282.736938 492.584900,277.930176 
	C493.000000,349.593689 493.000000,421.187378 493.000000,493.000000 
	C421.645935,493.000000 350.291626,493.000000 278.468658,493.000000 
z"/>
<path fill="#D47070" opacity="1.000000" stroke="none" 
	d="
M1.835790,239.930954 
	C1.883773,244.330643 1.931757,248.730347 1.696158,253.588196 
	C1.412575,254.046356 1.000000,254.000000 1.000000,254.000000 
	C1.000000,249.643097 1.000000,245.286194 1.208096,240.437073 
	C1.416193,239.944870 1.835790,239.930954 1.835790,239.930954 
z"/>
<path fill="#C94B4B" opacity="1.000000" stroke="none" 
	d="
M253.068253,1.828102 
	C249.993958,1.871822 246.919662,1.915543 243.409500,1.687456 
	C242.973633,1.415649 243.000000,1.000000 243.000000,1.000000 
	C246.030594,1.000000 249.061188,1.000000 252.559540,1.207307 
	C253.027283,1.414615 253.068253,1.828102 253.068253,1.828102 
z"/>
<path fill="#D46C6C" opacity="1.000000" stroke="none" 
	d="
M242.545898,1.000000 
	C243.000000,1.000000 242.973633,1.415649 242.952972,1.622281 
	C239.899261,1.912451 236.866226,1.995989 233.442108,1.770690 
	C233.051010,1.461853 233.000000,1.000000 233.000000,1.000000 
	C236.030594,1.000000 239.061188,1.000000 242.545898,1.000000 
z"/>
<path fill="#E09696" opacity="1.000000" stroke="none" 
	d="
M1.000000,254.449982 
	C1.000000,254.000000 1.412575,254.046356 1.620009,254.051544 
	C1.821001,256.943604 1.814560,259.830475 1.404059,262.858673 
	C1.000000,260.299988 1.000000,257.599976 1.000000,254.449982 
z"/>
<path fill="#D36D6D" opacity="1.000000" stroke="none" 
	d="
M253.493011,1.871286 
	C253.068253,1.828102 253.027283,1.414615 253.013641,1.207307 
	C255.370560,1.000000 257.741119,1.000000 260.555847,1.000001 
	C258.639252,1.304824 256.278534,1.609647 253.493011,1.871286 
z"/>
<path fill="#E4A3A3" opacity="1.000000" stroke="none" 
	d="
M1.876915,239.512192 
	C1.835790,239.930954 1.416193,239.944870 1.208096,239.972443 
	C1.000000,237.958328 1.000000,235.916672 1.000001,233.437500 
	C1.306016,235.031143 1.612028,237.062286 1.876915,239.512192 
z"/>
<path fill="#F2D2D2" opacity="1.000000" stroke="none" 
	d="
M232.625000,1.000000 
	C233.000000,1.000000 233.051010,1.461853 232.991440,1.686188 
	C232.012009,1.834753 231.092148,1.758982 230.086151,1.341606 
	C230.750000,1.000000 231.500000,1.000000 232.625000,1.000000 
z"/>
<path fill="#020202" opacity="1.000000" stroke="none" 
	d="
M306.921631,61.015320 
	C316.678589,64.869804 326.435547,68.724289 336.599304,73.078117 
	C343.073486,86.413773 349.140930,99.250084 355.603485,112.922340 
	C363.811646,110.135826 372.552673,107.168411 381.293701,104.200989 
	C385.893646,108.795563 390.493561,113.390137 394.877625,118.468536 
	C383.437256,122.943604 372.212769,126.934845 360.440247,131.120941 
	C370.629639,166.641235 375.117798,203.408463 376.159332,240.832047 
	C399.175690,240.832047 421.615936,240.832047 444.056213,240.832047 
	C444.077087,246.655197 444.097992,252.478333 443.567078,258.735809 
	C420.768860,259.170135 398.522369,259.170135 376.127655,259.170135 
	C375.530273,286.490387 372.777130,312.928711 367.604401,339.102173 
	C362.374084,333.799286 357.143738,328.496368 351.845520,322.404419 
	C354.036957,301.013641 356.296265,280.411865 358.619263,259.229218 
	C333.978027,259.229218 310.879059,259.229218 287.780090,259.229218 
	C281.799133,253.380783 275.818146,247.532333 270.213196,241.267975 
	C299.467499,240.852066 328.345795,240.852066 357.191742,240.852066 
	C358.102112,212.702103 349.012787,152.632965 341.740295,136.011490 
	C314.542206,138.848602 287.651611,141.653625 260.188812,144.518356 
	C260.188812,145.436569 260.192505,147.223892 260.188232,149.011169 
	C260.122681,176.484024 260.056091,203.956863 259.989746,231.429718 
	C254.012604,225.553986 248.035477,219.678238 241.932175,213.011703 
	C241.806015,189.327789 241.806015,166.434677 241.806015,143.377502 
	C240.438919,143.255341 239.638580,143.175232 238.836838,143.113449 
	C221.613968,141.786087 204.380554,140.579926 187.172638,139.081116 
	C179.426498,138.406418 171.731171,137.148483 164.012787,136.155182 
	C156.097672,128.339905 148.182556,120.524635 140.566406,112.362274 
	C142.990128,112.015198 145.114883,112.015198 146.652374,112.015198 
	C153.513748,97.656372 160.329514,83.392944 167.145294,69.129517 
	C176.924362,65.455551 186.703430,61.781574 196.767853,58.439480 
	C183.472626,76.297569 173.635193,95.773102 165.826401,118.070724 
	C191.547729,120.623611 216.406418,123.090889 241.750305,125.606323 
	C241.750305,100.006500 241.750305,75.759117 241.750305,51.511734 
	C247.622574,51.606674 253.494858,51.701614 259.777313,52.374348 
	C260.187500,76.826195 260.187500,100.700256 260.187500,124.621788 
	C285.957123,123.864708 310.886292,121.929482 335.676453,116.862671 
	C335.145081,115.416702 334.746613,114.329964 334.346436,113.243874 
	C327.489624,94.634651 318.210602,77.297272 306.921631,61.015320 
z"/>
<path fill="#020202" opacity="1.000000" stroke="none" 
	d="
M335.865234,364.064392 
	C343.849915,371.911224 351.834564,379.758057 359.420105,388.028809 
	C357.587799,388.157318 356.154633,387.861908 354.906403,387.604584 
	C350.189758,398.260010 345.578918,408.667511 340.994141,419.086517 
	C340.883362,419.338287 341.063293,419.717957 341.107605,420.037964 
	C331.323883,424.418213 321.540161,428.798462 311.436462,432.755005 
	C321.470490,417.150848 329.433716,400.778839 335.731903,382.988525 
	C310.768341,378.207001 285.778290,375.722015 260.223969,375.277008 
	C260.223969,398.468109 260.223969,421.093048 260.223969,443.717957 
	C254.400101,443.817963 248.576248,443.917969 242.281006,443.486633 
	C241.809616,420.513031 241.809616,398.070862 241.809616,375.235779 
	C216.139084,375.785919 191.231949,378.182129 166.322769,382.955292 
	C172.815369,402.203644 181.974289,419.598694 193.120361,435.993469 
	C183.385620,432.112244 173.650894,428.231049 163.534790,423.803680 
	C157.757584,411.428650 152.361755,399.599762 146.664688,387.110474 
	C137.867905,390.083130 128.811890,393.143372 119.755875,396.203613 
	C114.973289,391.729706 110.190712,387.255798 105.588562,382.407928 
	C117.592491,377.736542 129.415985,373.439087 141.581192,369.017456 
	C131.376678,333.500031 126.762009,296.728882 125.823456,259.182373 
	C100.907494,259.182373 76.475281,259.182373 52.043064,259.182373 
	C51.870068,253.308578 51.697067,247.434784 52.206367,241.196457 
	C77.127480,240.831924 101.366302,240.831924 125.820992,240.831924 
	C126.501678,213.980682 128.924042,187.872772 134.159134,162.072769 
	C139.402985,167.236862 144.646851,172.400955 150.003784,178.281815 
	C146.788589,199.337753 144.746719,219.783920 144.604980,240.280792 
	C145.295471,240.556198 145.590515,240.776871 145.885590,240.776901 
	C168.200134,240.779297 190.514679,240.764282 212.829224,240.750641 
	C218.807281,246.626923 224.785324,252.503204 230.435211,258.761200 
	C201.683655,259.142914 173.260269,259.142914 144.538315,259.142914 
	C145.274246,295.536194 150.008362,330.718719 159.996902,364.061401 
	C187.611923,361.161469 214.486069,358.339355 241.808594,355.470123 
	C241.808594,354.429047 241.805084,352.628510 241.809113,350.827972 
	C241.869217,323.865601 241.930298,296.903229 241.991180,269.940857 
	C247.960556,275.808014 253.929947,281.675201 260.056152,288.304718 
	C260.213013,311.607239 260.213013,334.147400 260.213013,355.159454 
	C286.070618,358.203125 310.967926,361.133759 335.865234,364.064392 
z"/>
<path fill="#FDFDFD" opacity="1.000000" stroke="none" 
	d="
M260.187134,231.661728 
	C260.056091,203.956863 260.122681,176.484024 260.188232,149.011169 
	C260.192505,147.223892 260.188812,145.436569 260.188812,144.518356 
	C287.651611,141.653625 314.542206,138.848602 341.740295,136.011490 
	C349.012787,152.632965 358.102112,212.702103 357.191742,240.852066 
	C328.345795,240.852066 299.467499,240.852066 270.086456,240.939529 
	C266.517303,237.982574 263.450928,234.938156 260.187134,231.661728 
z"/>
<path fill="#FDFDFD" opacity="1.000000" stroke="none" 
	d="
M241.789215,269.681519 
	C241.930298,296.903229 241.869217,323.865601 241.809113,350.827972 
	C241.805084,352.628510 241.808594,354.429047 241.808594,355.470123 
	C214.486069,358.339355 187.611923,361.161469 159.996902,364.061401 
	C150.008362,330.718719 145.274246,295.536194 144.538315,259.142914 
	C173.260269,259.142914 201.683655,259.142914 230.574005,259.065552 
	C234.556396,262.466187 238.071838,265.944153 241.789215,269.681519 
z"/>
<path fill="#FEFDFD" opacity="1.000000" stroke="none" 
	d="
M52.004730,259.624756 
	C76.475281,259.182373 100.907494,259.182373 125.823456,259.182373 
	C126.762009,296.728882 131.376678,333.500031 141.581192,369.017456 
	C129.415985,373.439087 117.592491,377.736542 105.414932,382.140686 
	C88.206718,365.251862 75.723648,345.357452 66.537842,323.381042 
	C58.076645,303.138214 52.881489,282.078796 52.004730,259.624756 
z"/>
<path fill="#FEFDFD" opacity="1.000000" stroke="none" 
	d="
M444.130371,240.382935 
	C421.615936,240.832047 399.175690,240.832047 376.159332,240.832047 
	C375.117798,203.408463 370.629639,166.641235 360.440247,131.120941 
	C372.212769,126.934845 383.437256,122.943604 395.033813,118.763824 
	C403.140625,129.133209 411.780273,139.153900 418.431152,150.355408 
	C434.759735,177.856293 443.426086,207.826355 444.130371,240.382935 
z"/>
<path fill="#FEFDFD" opacity="1.000000" stroke="none" 
	d="
M134.008087,161.762817 
	C128.924042,187.872772 126.501678,213.980682 125.820992,240.831924 
	C101.366302,240.831924 77.127480,240.831924 52.409557,240.832855 
	C51.588165,223.203125 55.021118,206.131729 60.201340,189.435257 
	C67.348534,166.399002 78.487907,145.371490 93.497696,126.441444 
	C94.191414,125.566536 94.947235,124.740860 95.937851,123.584366 
	C108.730721,136.360123 121.293884,148.906494 134.008087,161.762817 
z"/>
<path fill="#FEFDFD" opacity="1.000000" stroke="none" 
	d="
M367.786469,339.393127 
	C372.777130,312.928711 375.530273,286.490387 376.127655,259.170135 
	C398.522369,259.170135 420.768860,259.170135 443.480103,259.176392 
	C443.373779,282.245819 437.585236,304.143097 428.689301,325.246887 
	C421.625153,342.005280 412.256012,357.455139 400.486084,371.679016 
	C389.632050,360.999420 378.800293,350.341766 367.786469,339.393127 
z"/>
<path fill="#FDFCFC" opacity="1.000000" stroke="none" 
	d="
M241.334564,51.498089 
	C241.750305,75.759117 241.750305,100.006500 241.750305,125.606323 
	C216.406418,123.090889 191.547729,120.623611 165.826401,118.070724 
	C173.635193,95.773102 183.472626,76.297569 197.168945,58.446053 
	C211.829407,55.908642 226.374130,53.696541 241.334564,51.498089 
z"/>
<path fill="#FDFCFC" opacity="1.000000" stroke="none" 
	d="
M306.956482,61.010220 
	C318.210602,77.297272 327.489624,94.634651 334.346436,113.243874 
	C334.746613,114.329964 335.145081,115.416702 335.676453,116.862671 
	C310.886292,121.929482 285.957123,123.864708 260.187500,124.621788 
	C260.187500,100.700256 260.187500,76.826195 260.191711,52.483669 
	C275.635406,52.375278 290.657715,55.116837 305.741760,60.266029 
	C306.352905,60.925003 306.629700,61.079521 306.995087,61.075466 
	C306.995087,61.075466 306.991364,61.005123 306.956482,61.010220 
z"/>
<path fill="#FDFCFC" opacity="1.000000" stroke="none" 
	d="
M193.468109,436.112549 
	C181.974289,419.598694 172.815369,402.203644 166.322769,382.955292 
	C191.231949,378.182129 216.139084,375.785919 241.809616,375.235779 
	C241.809616,398.070862 241.809616,420.513031 241.804840,443.414185 
	C225.426804,443.702759 209.409531,441.297119 193.468109,436.112549 
z"/>
<path fill="#FDFCFC" opacity="1.000000" stroke="none" 
	d="
M260.638794,443.730347 
	C260.223969,421.093048 260.223969,398.468109 260.223969,375.277008 
	C285.778290,375.722015 310.768341,378.207001 335.731903,382.988525 
	C329.433716,400.778839 321.470490,417.150848 311.039764,432.669617 
	C310.963043,433.007904 311.021881,433.001129 310.806519,433.053589 
	C310.291901,433.273560 310.156158,433.528168 310.183838,433.869873 
	C294.306458,439.645782 277.843140,442.505768 260.638794,443.730347 
z"/>
<path fill="#FCFCFC" opacity="1.000000" stroke="none" 
	d="
M164.130615,136.461792 
	C171.731171,137.148483 179.426498,138.406418 187.172638,139.081116 
	C204.380554,140.579926 221.613968,141.786087 238.836838,143.113449 
	C239.638580,143.175232 240.438919,143.255341 241.806015,143.377502 
	C241.806015,166.434677 241.806015,189.327789 241.780243,212.712753 
	C240.258194,211.894730 238.681763,210.665131 237.277588,209.263046 
	C214.410156,186.429596 191.569031,163.569839 168.703110,140.734894 
	C167.298569,139.332275 165.736984,138.086914 164.130615,136.461792 
z"/>
<path fill="#FCFBFB" opacity="1.000000" stroke="none" 
	d="
M335.855865,363.724121 
	C310.967926,361.133759 286.070618,358.203125 260.213013,355.159454 
	C260.213013,334.147400 260.213013,311.607239 260.237915,288.604492 
	C265.254761,293.004211 270.298950,297.814209 275.229553,302.737946 
	C295.454010,322.934357 315.643890,343.165466 335.855865,363.724121 
z"/>
<path fill="#FCFCFC" opacity="1.000000" stroke="none" 
	d="
M287.948181,259.515808 
	C310.879059,259.229218 333.978027,259.229218 358.619263,259.229218 
	C356.296265,280.411865 354.036957,301.013641 351.734375,322.098755 
	C350.975647,322.204773 350.112091,321.975372 349.566101,321.428802 
	C329.064636,300.904846 308.592407,280.351624 287.948181,259.515808 
z"/>
<path fill="#FCFBFB" opacity="1.000000" stroke="none" 
	d="
M212.641724,240.499283 
	C190.514679,240.764282 168.200134,240.779297 145.885590,240.776901 
	C145.590515,240.776871 145.295471,240.556198 144.604980,240.280792 
	C144.746719,219.783920 146.788589,199.337753 150.183167,178.583618 
	C161.375397,189.168747 172.538742,200.131332 183.615906,211.180328 
	C193.279129,220.818954 202.845215,230.554947 212.641724,240.499283 
z"/>
<path fill="#FCF9F9" opacity="1.000000" stroke="none" 
	d="
M166.773956,69.087494 
	C160.329514,83.392944 153.513748,97.656372 146.652374,112.015198 
	C145.114883,112.015198 142.990128,112.015198 140.416290,112.069855 
	C134.538086,106.811378 129.108948,101.498238 123.386894,95.898445 
	C136.849777,84.704727 151.048416,75.960419 166.773956,69.087494 
z"/>
<path fill="#FBFAFA" opacity="1.000000" stroke="none" 
	d="
M381.220276,103.910248 
	C372.552673,107.168411 363.811646,110.135826 355.603485,112.922340 
	C349.140930,99.250084 343.073486,86.413773 336.894501,73.223686 
	C353.404541,80.474281 368.008392,90.989807 381.220276,103.910248 
z"/>
<path fill="#FCFAFA" opacity="1.000000" stroke="none" 
	d="
M119.903694,396.504822 
	C128.811890,393.143372 137.867905,390.083130 146.664688,387.110474 
	C152.361755,399.599762 157.757584,411.428650 163.273514,423.604187 
	C161.977905,423.664581 160.414703,423.672272 159.169067,423.047150 
	C145.029190,415.951324 131.882172,407.354309 119.903694,396.504822 
z"/>
<path fill="#FCF9F9" opacity="1.000000" stroke="none" 
	d="
M341.473206,420.037170 
	C341.063293,419.717957 340.883362,419.338287 340.994141,419.086517 
	C345.578918,408.667511 350.189758,398.260010 354.906403,387.604584 
	C356.154633,387.861908 357.587799,388.157318 359.449432,388.376160 
	C359.877869,388.299591 359.957642,388.163696 359.853455,388.428650 
	C360.163116,388.752380 360.576935,388.811127 360.990784,388.869873 
	C364.700745,392.395966 368.410706,395.922028 372.575531,399.880402 
	C362.610535,407.500977 353.067322,415.012329 341.473206,420.037170 
z"/>
<path fill="#020202" opacity="1.000000" stroke="none" 
	d="
M306.963684,60.825752 
	C306.629700,61.079521 306.352905,60.925003 306.108856,60.372280 
	C306.346069,60.280445 306.639191,60.428242 306.963684,60.825752 
z"/>
<path fill="#020202" opacity="1.000000" stroke="none" 
	d="
M360.870453,388.649353 
	C360.576935,388.811127 360.163116,388.752380 359.794373,388.376526 
	C360.143036,388.182587 360.446594,388.305695 360.870453,388.649353 
z"/>
<path fill="#020202" opacity="1.000000" stroke="none" 
	d="
M310.378479,433.766937 
	C310.156158,433.528168 310.291901,433.273560 310.804138,433.024017 
	C311.004669,433.266052 310.856689,433.506714 310.378479,433.766937 
z"/>
</svg>